<?xml version="1.0"?><svg xmlns="http://www.w3.org/2000/svg" width="1600" height="900" viewBox="0 0 1600 900"><defs><radialGradient id="g" cx="75%" cy="45%" r="70%"><stop offset="0" stop-color="#ff4d00" stop-opacity=".34"/><stop offset=".34" stop-color="#38bdf8" stop-opacity=".12"/><stop offset="1" stop-color="#050914" stop-opacity="0"/></radialGradient><linearGradient id="bg" x1="0" y1="0" x2="1" y2="1"><stop offset="0" stop-color="#050914"/><stop offset="1" stop-color="#081827"/></linearGradient><filter id="shadow"><feDropShadow dx="0" dy="26" stdDeviation="28" flood-color="#000" flood-opacity=".45"/></filter></defs><rect width="1600" height="900" fill="url(#bg)"/><rect width="1600" height="900" fill="url(#g)"/><path d="M0 664 C214 604 382 688 586 634 C760 588 872 502 1056 548 C1260 598 1368 650 1600 574 L1600 900 L0 900 Z" fill="#020711" opacity=".92"/><path d="M0 724 C220 653 386 730 610 690 C804 655 908 585 1100 615 C1292 646 1390 705 1600 638" stroke="#7dd3fc" stroke-width="3" opacity=".22" fill="none"/><path d="M960 215 L1470 702" stroke="#ff4d00" stroke-width="72" opacity=".06" stroke-linecap="round"/><path d="M970 715 C1100 600 1240 415 1458 254" stroke="#ff4d00" stroke-width="12" fill="none" stroke-linecap="round"/><path d="M970 715 C1100 600 1240 415 1458 254" stroke="#38bdf8" stroke-width="4" fill="none" stroke-dasharray="22 18"/><g transform="translate(1230 700) scale(0.58)"><path d="M-250 38 C-160 112 128 114 262 36 L202 124 C82 184 -118 178 -218 102 Z" fill="#f3fbff"/><path d="M-180 26 L-104 -58 L92 -58 L172 26 Z" fill="#101927" stroke="#d8f8ff" stroke-width="5"/><path d="M-52 -58 L-20 -112 L82 -112 L116 -58 Z" fill="#18283a" stroke="#d8f8ff" stroke-width="5"/><rect x="-24" y="-142" width="90" height="28" rx="8" fill="#ff4d00"/><circle cx="-124" cy="45" r="17" fill="#38bdf8"/><circle cx="-60" cy="45" r="17" fill="#38bdf8"/><circle cx="6" cy="45" r="17" fill="#38bdf8"/><path d="M-300 130 C-160 190 58 196 318 128" stroke="#38bdf8" stroke-width="15" opacity=".28" fill="none" stroke-linecap="round"/></g><text x="1030" y="232" font-family="Arial Black, Arial" font-size="50" fill="#ff4d00">ROUTE PRESSURE</text><g filter="url(#shadow)"><text x="82" y="95" font-family="Arial" font-size="31" font-weight="950" fill="#fff" letter-spacing="3">VESSELSURGE</text><text x="82" y="137" font-family="Arial" font-size="17" font-weight="800" fill="#b7c8d6" letter-spacing="2.4">LIVE MARITIME INTELLIGENCE</text><rect x="82" y="186" width="360" height="56" rx="12" fill="#ff4d00"/><text x="106" y="222" font-family="Arial" font-size="22" font-weight="950" fill="#fff" letter-spacing="1.4">RED SEA WATCH</text><text x="82" y="377" font-family="Arial Black, Arial" font-size="88" font-weight="950" fill="#fff">RED SEA RISK</text><text x="82" y="482" font-family="Arial Black, Arial" font-size="88" font-weight="950" fill="#fff">SPREADS FAST</text><rect x="82" y="535" width="160" height="10" rx="5" fill="#ff4d00"/><text x="82" y="620" font-family="Arial" font-size="34" font-weight="850" fill="#e6f4ff">Bab el-Mandeb / rerouting / transit exposure</text><rect x="82" y="784" width="120" height="40" rx="20" fill="rgba(0,0,0,.32)" stroke="#ff4d00" stroke-width="1.3"/><text x="98" y="810" font-family="Arial" font-size="15" font-weight="900" fill="#fff" letter-spacing="1.1">RED SEA</text><rect x="222" y="784" width="190" height="40" rx="20" fill="rgba(0,0,0,.32)" stroke="#ff4d00" stroke-width="1.3"/><text x="238" y="810" font-family="Arial" font-size="15" font-weight="900" fill="#fff" letter-spacing="1.1">BAB EL-MANDEB</text><rect x="432" y="784" width="142" height="40" rx="20" fill="rgba(0,0,0,.32)" stroke="#ff4d00" stroke-width="1.3"/><text x="448" y="810" font-family="Arial" font-size="15" font-weight="900" fill="#fff" letter-spacing="1.1">REROUTING</text><text x="82" y="853" font-family="Arial" font-size="25" font-weight="950" fill="#fff">vesselsurge.com</text><text x="1205" y="853" font-family="Arial" font-size="24" font-weight="850" fill="#d6e5ee">Track the live signal</text></g></svg>