<?xml version="1.0" encoding="UTF-8"?><svg xmlns="http://www.w3.org/2000/svg" width="1600" height="900" viewBox="0 0 1600 900"><defs><radialGradient id="g" cx="75%" cy="45%" r="70%"><stop offset="0" stop-color="#00f5a0" stop-opacity=".34"/><stop offset=".34" stop-color="#ff2d55" stop-opacity=".12"/><stop offset="1" stop-color="#05110d" stop-opacity="0"/></radialGradient><linearGradient id="bg" x1="0" y1="0" x2="1" y2="1"><stop offset="0" stop-color="#05110d"/><stop offset="1" stop-color="#081827"/></linearGradient><filter id="shadow"><feDropShadow dx="0" dy="26" stdDeviation="28" flood-color="#000" flood-opacity=".45"/></filter></defs><rect width="1600" height="900" fill="url(#bg)"/><rect width="1600" height="900" fill="url(#g)"/><path d="M-40 0 L160 0 L-40 210 Z" fill="#00f5a0" opacity=".14"/><path d="M1420 0 L1600 0 L1600 260 Z" fill="#00f5a0" opacity=".12"/><path d="M0 660 C214 604 384 686 585 634 C760 588 872 502 1056 548 C1260 598 1368 650 1600 574 L1600 900 L0 900 Z" fill="#020711" opacity=".92"/><path d="M0 720 C220 653 386 730 610 690 C804 655 908 585 1100 615 C1292 646 1390 705 1600 638" stroke="#7dd3fc" stroke-width="3" opacity=".22" fill="none"/><g><circle cx="1195" cy="475" r="72" fill="none" stroke="#fff" stroke-width="2" opacity="0.1"/><circle cx="1195" cy="475" r="144" fill="none" stroke="#fff" stroke-width="2" opacity="0.13"/><circle cx="1195" cy="475" r="216" fill="none" stroke="#fff" stroke-width="2" opacity="0.16"/><circle cx="1195" cy="475" r="288" fill="none" stroke="#fff" stroke-width="2" opacity="0.19"/><circle cx="1195" cy="475" r="360" fill="none" stroke="#fff" stroke-width="2" opacity="0.22"/><path d="M1195 475 L1504.6 338.2" stroke="#00f5a0" stroke-width="11" opacity=".9" stroke-linecap="round"/><circle cx="1195" cy="475" r="11" fill="#ff2d55"/><circle cx="1418.2" cy="377.8" r="13" fill="#00f5a0"/></g><g transform="translate(1195 700) scale(0.68)"><path d="M-230 35 C-150 105 113 107 240 32 L185 110 C76 166 -111 161 -200 94 Z" fill="#f2fbff"/><path d="M-170 24 L-98 -52 L82 -52 L158 24 Z" fill="#101927" stroke="#d8f8ff" stroke-width="5"/><path d="M-48 -52 L-18 -104 L74 -104 L104 -52 Z" fill="#18283a" stroke="#d8f8ff" stroke-width="5"/><rect x="-20" y="-132" width="82" height="26" rx="8" fill="#00f5a0"/><circle cx="-110" cy="42" r="16" fill="#ff2d55"/><circle cx="-52" cy="42" r="16" fill="#ff2d55"/><circle cx="8" cy="42" r="16" fill="#ff2d55"/><path d="M-276 120 C-152 174 54 180 292 118" stroke="#ff2d55" stroke-width="14" opacity=".28" fill="none" stroke-linecap="round"/><path d="M-242 158 C-84 214 100 212 250 155" stroke="#fff" stroke-width="5" opacity=".20" fill="none" stroke-linecap="round"/></g><path d="M900 238 L1495 660" stroke="#ff2d55" stroke-width="7" opacity=".55" stroke-dasharray="18 24"/><circle cx="1045" cy="340" r="16" fill="#00f5a0"/><circle cx="1285" cy="510" r="16" fill="#ff2d55"/><circle cx="1455" cy="632" r="16" fill="#00f5a0"/><g filter="url(#shadow)"><text x="82" y="95" font-family="Arial, Helvetica, sans-serif" font-size="31" font-weight="950" fill="#fff" letter-spacing="3">VESSELSURGE</text><text x="82" y="137" font-family="Arial, Helvetica, sans-serif" font-size="17" font-weight="800" fill="#b7c8d6" letter-spacing="2.4">LIVE MARITIME INTELLIGENCE</text><rect x="82" y="186" width="315" height="56" rx="12" fill="#00f5a0"/><text x="106" y="222" font-family="Arial" font-size="22" font-weight="950" fill="#fff" letter-spacing="1.7">VESSELSURGE INTEL</text><rect x="424" y="193" width="255" height="42" rx="21" fill="rgba(0,0,0,.35)" stroke="#ff2d55" stroke-width="1.4"/><text x="441" y="220" font-family="Arial, Helvetica, sans-serif" font-size="16" font-weight="900" fill="#fff" letter-spacing="1.3">WATCH BEFORE NEWS</text><text x="82" y="377" font-family="Arial Black, Arial, sans-serif" font-size="88" font-weight="950" fill="#fff">HEADLINES LAG.</text><text x="82" y="482" font-family="Arial Black, Arial, sans-serif" font-size="88" font-weight="950" fill="#fff">VESSELS MOVE FIRST.</text><rect x="82" y="535" width="160" height="10" rx="5" fill="#00f5a0"/><text x="82" y="620" font-family="Arial" font-size="34" font-weight="850" fill="#e6f4ff">A live maritime picture for operators, traders and risk teams.</text><rect x="82" y="786" width="138" height="42" rx="21" fill="rgba(0,0,0,.28)" stroke="#00f5a0" stroke-width="1.4"/><text x="99" y="813" font-family="Arial, Helvetica, sans-serif" font-size="16" font-weight="900" fill="#fff" letter-spacing="1.3">LIVE MAP</text><rect x="242" y="786" width="190" height="42" rx="21" fill="rgba(0,0,0,.28)" stroke="#00f5a0" stroke-width="1.4"/><text x="259" y="813" font-family="Arial, Helvetica, sans-serif" font-size="16" font-weight="900" fill="#fff" letter-spacing="1.3">INTELLIGENCE</text><rect x="454" y="786" width="125" height="42" rx="21" fill="rgba(0,0,0,.28)" stroke="#00f5a0" stroke-width="1.4"/><text x="471" y="813" font-family="Arial, Helvetica, sans-serif" font-size="16" font-weight="900" fill="#fff" letter-spacing="1.3">SIGNALS</text><text x="82" y="853" font-family="Arial" font-size="25" font-weight="950" fill="#fff">vesselsurge.com/map-dashboard</text><text x="1220" y="853" font-family="Arial" font-size="24" font-weight="850" fill="#d6e5ee">See the live choke points</text></g></svg>